<svg width="20" height="20" viewBox="0 0 20 20" fill="none" xmlns="http://www.w3.org/2000/svg">
<g clip-path="url(#clip0_64_96)">
<path d="M6.66663 10.0062C6.66339 8.16558 8.15316 6.67031 9.99347 6.6671C11.8341 6.66351 13.3297 8.15261 13.3333 9.99363C13.3368 11.8346 11.8471 13.3296 10.0061 13.3332C8.16577 13.3367 6.67019 11.8473 6.66663 10.0062ZM4.86554 10.0098C4.87105 12.8459 7.17437 15.1398 10.0097 15.1343C12.8453 15.1288 15.1405 12.8261 15.135 9.99007C15.1295 7.15503 12.8259 4.85976 9.98991 4.86531C7.15456 4.87082 4.86003 7.17445 4.86554 10.0098ZM14.1274 4.65468C14.1287 5.31695 14.6671 5.8532 15.3294 5.85191C15.992 5.85058 16.5282 5.31242 16.5273 4.65015C16.526 3.98789 15.9875 3.45132 15.3249 3.45265C14.6623 3.45394 14.1261 3.99242 14.1274 4.65468ZM5.97523 18.1469C5.0003 18.1044 4.47089 17.9424 4.11808 17.8067C3.65085 17.6259 3.31745 17.4091 2.96655 17.0609C2.61632 16.7112 2.3989 16.3788 2.21648 15.9125C2.07944 15.5597 1.91452 15.0309 1.86882 14.056C1.81925 13.002 1.80792 12.6858 1.80308 10.0157C1.79788 7.34621 1.80761 7.02996 1.85362 5.975C1.89538 5.00074 2.05839 4.47062 2.19382 4.11812C2.3746 3.65027 2.59073 3.3175 2.93968 2.96664C3.28925 2.61574 3.62167 2.39898 4.08823 2.21656C4.44077 2.07882 4.96952 1.91519 5.94413 1.8689C6.99874 1.81898 7.31464 1.80832 9.98409 1.80312C12.6541 1.79792 12.9703 1.80734 14.0253 1.85367C14.9996 1.89609 15.5296 2.05746 15.8819 2.19386C16.3494 2.37464 16.6828 2.59015 17.0334 2.93972C17.3839 3.28933 17.6013 3.62109 17.7837 4.08867C17.9214 4.44019 18.0851 4.9696 18.1311 5.9439C18.1813 6.99851 18.1926 7.31476 18.1975 9.98421C18.2026 12.6543 18.1929 12.9706 18.1466 14.0249C18.1042 14.9998 17.9425 15.5296 17.8064 15.8827C17.6256 16.3496 17.4095 16.683 17.0602 17.0339C16.711 17.3835 16.3785 17.6016 15.9117 17.784C15.5598 17.9214 15.0304 18.0853 14.0564 18.1316C13.0018 18.1812 12.6859 18.1926 10.0155 18.1974C7.34605 18.2026 7.03019 18.1926 5.97523 18.1469ZM5.85859 0.0693701C4.79456 0.119604 4.06784 0.289995 3.43277 0.538862C2.77538 0.795151 2.21812 1.13859 1.66378 1.69523C1.10874 2.25218 0.767882 2.81042 0.513546 3.46847C0.267335 4.10515 0.10046 4.83222 0.0534677 5.89691C0.00682703 6.96355 -0.0038761 7.30375 0.00131921 10.0192C0.00651452 12.7344 0.0184676 13.0752 0.069327 14.1422C0.120186 15.2059 0.289991 15.9323 0.538819 16.5677C0.795421 17.2251 1.13855 17.7821 1.6955 18.3368C2.25214 18.8914 2.81073 19.232 3.46909 19.4867C4.10511 19.7325 4.83245 19.9001 5.89683 19.9467C6.96343 19.9937 7.30394 20.0041 10.0187 19.9989C12.7348 19.9937 13.0754 19.9817 14.142 19.9312C15.206 19.8803 15.9321 19.7099 16.5678 19.4617C17.2251 19.2044 17.7824 18.8619 18.3368 18.305C18.8912 17.7483 19.232 17.1898 19.4864 16.5314C19.7326 15.8954 19.9001 15.168 19.9464 14.1043C19.9931 13.037 20.0041 12.6961 19.9989 9.98097C19.9937 7.2655 19.9814 6.92531 19.9309 5.85902C19.8803 4.79433 19.7099 4.06824 19.4614 3.43253C19.2045 2.77515 18.8617 2.21847 18.3051 1.66347C17.7484 1.1091 17.1898 0.767573 16.5315 0.513901C15.8951 0.267651 15.1681 0.0998389 14.1037 0.0538232C13.0371 0.00651856 12.6966 -0.003833 9.98081 0.00132325C7.26569 0.00651856 6.92519 0.0181592 5.85859 0.0693701Z" fill="#8C8C8C"/>
</g>
<defs>
<clipPath id="clip0_64_96">
<rect width="20" height="20" fill="white"/>
</clipPath>
</defs>
</svg>
