<svg width="20" height="20" viewBox="0 0 20 20" fill="none" xmlns="http://www.w3.org/2000/svg">
<g clip-path="url(#clip0_64_105)">
<path fill-rule="evenodd" clip-rule="evenodd" d="M4.10156 0H15.8984C18.1612 0.00605469 19.9939 1.83875 20 4.10141V15.8984C19.9939 18.1612 18.1612 19.9939 15.8986 19.9999L4.10156 20C1.83883 19.9939 0.00609375 18.1612 7.8125e-05 15.8986L0 4.10156C0.00609375 1.83875 1.83883 0.00605469 4.10145 0H4.10156ZM14.41 5.99148C13.575 5.60956 12.6936 5.33853 11.7882 5.18531C11.6649 5.40689 11.5531 5.63475 11.4534 5.86797C10.9719 5.79531 10.4855 5.75875 9.99852 5.75859C9.51231 5.75859 9.02367 5.79551 8.54344 5.86703C8.44531 5.63551 8.33141 5.40594 8.20781 5.18519C7.30241 5.33989 6.42092 5.61144 5.58543 5.99305C3.92605 8.44781 3.47637 10.8412 3.70121 13.2006C4.67286 13.9182 5.76032 14.4641 6.91637 14.8143C7.17563 14.4644 7.40789 14.0918 7.60504 13.7041C7.22885 13.5639 6.86581 13.3907 6.5202 13.1864C6.61117 13.1204 6.70012 13.0525 6.78602 12.9865C7.79098 13.4585 8.88902 13.7046 9.99996 13.7046C11.111 13.7046 12.209 13.4585 13.214 12.9864C13.3009 13.0574 13.3899 13.1254 13.4798 13.1863C13.1335 13.391 12.7698 13.5647 12.393 13.7054C12.5909 14.094 12.8212 14.4651 13.0817 14.8148C14.2388 14.4656 15.3271 13.9198 16.299 13.2013L16.2987 13.2016C16.5625 10.4655 15.848 8.09402 14.41 5.99148ZM7.88941 11.7496C7.26285 11.7496 6.74516 11.181 6.74516 10.4814C6.74516 9.78191 7.2448 9.20828 7.88738 9.20828C8.52996 9.20828 9.04359 9.78191 9.03262 10.4814C9.0216 11.181 8.52797 11.7496 7.88941 11.7496ZM12.1105 11.7496C11.483 11.7496 10.9673 11.181 10.9673 10.4814C10.9673 9.78191 11.467 9.20828 12.1105 9.20828C12.7541 9.20828 13.2638 9.78191 13.2528 10.4814C13.2418 11.181 12.7491 11.7496 12.1105 11.7496Z" fill="#8C8C8C"/>
</g>
<defs>
<clipPath id="clip0_64_105">
<rect width="20" height="20" fill="white"/>
</clipPath>
</defs>
</svg>
