<svg width="20" height="20" viewBox="0 0 20 20" fill="none" xmlns="http://www.w3.org/2000/svg">
<g clip-path="url(#clip0_64_107)">
<path fill-rule="evenodd" clip-rule="evenodd" d="M9.99963 0.249103C4.47791 0.249103 0 4.72626 0 10.2487C0 14.6672 2.86494 18.4143 6.83831 19.7371C7.33844 19.8298 7.52225 19.5197 7.52225 19.2554C7.52225 19.017 7.51228 18.2294 7.50822 17.3944C4.72597 17.9994 4.13947 16.2141 4.13947 16.2141C3.68472 15.058 3.02919 14.7506 3.02919 14.7506C2.12194 14.1294 3.09822 14.143 3.09822 14.143C4.10216 14.2132 4.63072 15.1729 4.63072 15.1729C5.52322 16.7017 6.97081 16.2591 7.54106 16.004C7.63113 15.3578 7.8895 14.9163 8.17591 14.6664C5.95466 14.4144 3.61975 13.5566 3.61975 9.72457C3.61975 8.63313 4.011 7.74066 4.64991 7.04082C4.54584 6.78838 4.20331 5.77188 4.74625 4.39476C4.74625 4.39476 5.58594 4.1257 7.49716 5.41976C8.29441 5.19867 9.14959 5.0872 9.99891 5.08351C10.8489 5.0872 11.7056 5.19829 12.504 5.41976C14.4126 4.12645 15.2515 4.39476 15.2515 4.39476C15.7952 5.77226 15.4542 6.78948 15.3501 7.04085C15.9912 7.74066 16.3792 8.63313 16.3792 9.72457C16.3792 13.5654 14.0391 14.4099 11.813 14.6576C12.1718 14.9676 12.4922 15.5763 12.4922 16.5086C12.4922 17.8459 12.4807 18.9236 12.4807 19.2525C12.4807 19.5186 12.6608 19.8298 13.168 19.7323C17.1391 18.4087 20.0004 14.6612 20.0004 10.2454C20.0004 4.72363 15.5232 0.245728 10.0004 0.245728L9.99966 0.249071L9.99963 0.249103Z" fill="#8C8C8C"/>
</g>
<defs>
<clipPath id="clip0_64_107">
<rect width="20" height="20" fill="white"/>
</clipPath>
</defs>
</svg>
