<svg width="20" height="20" viewBox="0 0 20 20" fill="none" xmlns="http://www.w3.org/2000/svg">
<g clip-path="url(#clip0_66_18)">
<path d="M15.484 0H4.51602C2.02189 0 0 2.03125 0 4.53693V15.4631C0 17.9687 2.02189 20 4.51602 20H15.484C17.9781 20 20 17.9687 20 15.4631V4.53693C20 2.03125 17.9781 0 15.484 0Z" fill="#8C8C8C"/>
<path fill-rule="evenodd" clip-rule="evenodd" d="M8.00659 7.75218H10.5335V9.05349H10.5703C10.9222 8.41931 11.7828 7.75218 13.066 7.75218C15.7343 7.75218 16.2277 9.42041 16.2277 11.5906V16.1789H13.5925L13.5921 12.0925C13.5921 11.1581 13.573 9.95569 12.2218 9.95569C10.85 9.95569 10.6394 10.9725 10.6394 12.0246V16.1789H8.00659V7.75218ZM6.51323 5.19782C6.51323 5.95758 5.89917 6.57448 5.14292 6.57448C4.38628 6.57448 3.77222 5.95758 3.77222 5.19782C3.77222 4.43768 4.38628 3.82117 5.14292 3.82117C5.89917 3.82117 6.51323 4.43768 6.51323 5.19782ZM3.77222 7.75218H6.51323V16.1789H3.77222V7.75218Z" fill="black"/>
</g>
<defs>
<clipPath id="clip0_66_18">
<rect width="20" height="20" fill="white"/>
</clipPath>
</defs>
</svg>
