<svg width="20" height="20" viewBox="0 0 20 20" fill="none" xmlns="http://www.w3.org/2000/svg">
<g clip-path="url(#clip0_66_21)">
<path d="M10 20C15.5228 20 20 15.5228 20 10C20 4.47715 15.5228 0 10 0C4.47715 0 0 4.47715 0 10C0 15.5228 4.47715 20 10 20Z" fill="#8C8C8C"/>
<path fill-rule="evenodd" clip-rule="evenodd" d="M4.52653 9.89455C7.44177 8.62424 9.38552 7.78713 10.3582 7.38244C13.1355 6.22737 13.7125 6.02658 14.0886 6.01994C14.1715 6.01877 14.3562 6.03908 14.4761 6.13635C14.5773 6.21838 14.6051 6.32932 14.6183 6.40705C14.6316 6.48518 14.6484 6.66213 14.6351 6.8008C14.4847 8.38205 13.8336 12.2192 13.5023 13.9903C13.3621 14.7399 13.0859 14.991 12.8187 15.0156C12.2383 15.0692 11.7972 14.6317 11.2347 14.2629C10.3547 13.6864 9.85739 13.327 9.0031 12.7641C8.0156 12.1133 8.65583 11.7559 9.21833 11.1715C9.3656 11.0184 11.9242 8.69104 11.9738 8.4801C11.9801 8.45354 11.9859 8.3551 11.9273 8.30315C11.8687 8.25119 11.7824 8.26916 11.7203 8.28323C11.632 8.30315 10.2261 9.23245 7.50232 11.0711C7.1031 11.3453 6.74138 11.4785 6.41755 11.4719C6.06052 11.4641 5.3738 11.2699 4.86325 11.1039C4.23708 10.9004 3.73943 10.7926 3.78278 10.4469C3.80505 10.2668 4.0531 10.0828 4.52653 9.89455Z" fill="black"/>
</g>
<defs>
<clipPath id="clip0_66_21">
<rect width="20" height="20" fill="white"/>
</clipPath>
</defs>
</svg>
