<svg width="20" height="20" viewBox="0 0 20 20" fill="none" xmlns="http://www.w3.org/2000/svg">
<g clip-path="url(#clip0_66_29)">
<path fill-rule="evenodd" clip-rule="evenodd" d="M10 0C15.5229 0 20 4.47715 20 10C20 15.5229 15.5229 20 10 20C4.47715 20 0 15.5229 0 10C0 4.47715 4.47715 0 10 0Z" fill="#8C8C8C"/>
<path d="M12.4468 6.1543H13.7516L10.9011 9.41238L14.2546 13.8458H11.6287L9.5722 11.1569L7.21899 13.8458H5.91341L8.96231 10.3609L5.74536 6.1543H8.43771L10.2967 8.61199L12.4468 6.1543ZM11.9889 13.0648H12.7119L8.04489 6.8943H7.26911L11.9889 13.0648Z" fill="black"/>
</g>
<defs>
<clipPath id="clip0_66_29">
<rect width="20" height="20" fill="white"/>
</clipPath>
</defs>
</svg>
